<?xml version="1.0" encoding="UTF-8"?>
<!DOCTYPE svg PUBLIC "-//W3C//DTD SVG 1.1//EN" "http://www.w3.org/Graphics/SVG/1.1/DTD/svg11.dtd">
<svg xmlns="http://www.w3.org/2000/svg" version="1.1" width="512px" height="512px" style="shape-rendering:geometricPrecision; text-rendering:geometricPrecision; image-rendering:optimizeQuality; fill-rule:evenodd; clip-rule:evenodd" xmlns:xlink="http://www.w3.org/1999/xlink">
<g><path style="opacity:0.971" fill="#3C7EE2z" d="M 511.5,249.5 C 511.5,253.5 511.5,257.5 511.5,261.5C 478.086,307.215 437.753,345.715 390.5,377C 356.894,398.871 320.227,412.871 280.5,419C 232.968,423.594 188.302,414.427 146.5,391.5C 119.347,418.153 92.3471,444.986 65.5,472C 55.7795,477.445 46.9462,476.278 39,468.5C 35.2968,462.135 34.6302,455.468 37,448.5C 61.805,422.695 86.9717,397.195 112.5,372C 72.5082,343.344 37.0082,309.844 6,271.5C 3.56031,268.272 1.39364,264.939 -0.5,261.5C -0.5,257.5 -0.5,253.5 -0.5,249.5C 32.914,203.785 73.2473,165.285 120.5,134C 154.106,112.129 190.773,98.1291 230.5,92C 278.032,87.4062 322.698,96.5728 364.5,119.5C 391.653,92.8472 418.653,66.0138 445.5,39C 455.221,33.555 464.054,34.7217 472,42.5C 475.703,48.865 476.37,55.5316 474,62.5C 449.195,88.3054 424.028,113.805 398.5,139C 438.492,167.656 473.992,201.156 505,239.5C 507.44,242.728 509.606,246.061 511.5,249.5 Z M 238.5,128.5 C 272.949,126.223 305.615,132.723 336.5,148C 326.319,158.348 315.986,168.514 305.5,178.5C 276.159,160.77 245.826,158.937 214.5,173C 176.123,194.585 159.623,227.419 165,271.5C 167.452,283.697 171.952,295.03 178.5,305.5C 165.847,318.653 153.014,331.653 140,344.5C 103.276,319.616 70.7756,289.949 42.5,255.5C 81.0429,206.75 128.376,169.25 184.5,143C 202.129,136.262 220.129,131.428 238.5,128.5 Z M 370.5,166.5 C 406.134,190.286 437.968,218.619 466,251.5C 467.289,253.055 467.956,254.721 468,256.5C 429.298,304.578 382.131,341.745 326.5,368C 275.083,388.727 224.416,387.06 174.5,363C 184.681,352.652 195.014,342.486 205.5,332.5C 240.136,352.856 274.469,352.356 308.5,331C 341.335,305.12 353.168,271.62 344,230.5C 341.603,221.463 337.77,213.13 332.5,205.5C 345.188,192.479 357.855,179.479 370.5,166.5 Z M 246.5,201.5 C 256.671,200.609 266.505,201.942 276,205.5C 277.257,205.85 277.591,206.517 277,207.5C 253.653,231.014 230.153,254.347 206.5,277.5C 196.525,252.548 201.525,231.048 221.5,213C 229.171,207.495 237.504,203.661 246.5,201.5 Z M 303.5,233.5 C 305.284,234.574 306.451,236.24 307,238.5C 313.976,265.248 306.142,286.414 283.5,302C 267.197,310.924 250.531,311.758 233.5,304.5C 256.854,280.812 280.188,257.146 303.5,233.5 Z"/></g>
</svg>
