<?xml version="1.0" encoding="UTF-8"?>
<!DOCTYPE svg PUBLIC "-//W3C//DTD SVG 1.1//EN" "http://www.w3.org/Graphics/SVG/1.1/DTD/svg11.dtd">
<svg xmlns="http://www.w3.org/2000/svg" version="1.1" width="256px" height="256px" style="shape-rendering:geometricPrecision; text-rendering:geometricPrecision; image-rendering:optimizeQuality; fill-rule:evenodd; clip-rule:evenodd" xmlns:xlink="http://www.w3.org/1999/xlink">
<g><path style="opacity:0.986" fill="#040404" d="M -0.5,76.5 C -0.5,69.5 -0.5,62.5 -0.5,55.5C 7.19447,26.6526 26.0278,10.986 56,8.5C 91.1915,11.6915 110.358,30.8581 113.5,66C 111.132,98.6998 93.7984,117.7 61.5,123C 28.8962,123.217 8.2295,107.717 -0.5,76.5 Z"/></g>
<g><path style="opacity:0.991" fill="#ff691d" d="M 172.5,8.5 C 198.04,8.57377 216.54,19.9071 228,42.5C 238.331,71.3545 231.497,95.1878 207.5,114C 183.585,127.552 160.585,126.218 138.5,110C 118.954,91.2462 113.788,69.0795 123,43.5C 133.2,22.825 149.7,11.1583 172.5,8.5 Z"/></g>
<g><path style="opacity:0.985" fill="#040404" d="M -0.5,196.5 C -0.5,189.5 -0.5,182.5 -0.5,175.5C 8.63271,142.076 30.6327,126.576 65.5,129C 95.3858,136.051 111.386,154.885 113.5,185.5C 111.356,216.141 95.3564,234.974 65.5,242C 31.1639,244.357 9.16393,229.19 -0.5,196.5 Z"/></g>
<g><path style="opacity:0.973" fill="#040404" d="M 255.5,238.5 C 255.5,239.5 255.5,240.5 255.5,241.5C 228.831,241.667 202.165,241.5 175.5,241C 148.622,204.078 121.622,167.245 94.5,130.5C 121.833,129.167 149.167,129.167 176.5,130.5C 202.89,166.542 229.223,202.542 255.5,238.5 Z"/></g>
</svg>
