<svg width="48" height="48" viewBox="0 0 48 48" fill="none" xmlns="http://www.w3.org/2000/svg">
<rect x="1" y="1" width="46" height="46" rx="3" stroke="#343A3F" stroke-width="2"/>
<path d="M26 10H22V14H26V10Z" fill="#8C4291"/>
<path d="M26 22H22V26H26V22Z" fill="#CF1B1A"/>
<path d="M14 22H10V26H14V22Z" fill="#B1C772"/>
<path d="M14 34H10V38H14V34Z" fill="#1A77B0"/>
<path d="M38 10H34V14H38V10Z" fill="#FDCA21"/>
<path d="M38 34H34V38H38V34Z" fill="#C10250"/>
<path d="M21 39.9884V32.0116L23.4134 32C25.2235 32 27 33.1925 27 35.9942C27 38.7844 25.2346 39.9884 23.4134 39.9884L21 40V39.9884ZM22.4302 38.6107H22.9553C24.1844 38.6107 25.5363 38.1129 25.5363 35.9942C25.5363 33.8755 24.1844 33.3777 22.9553 33.3777H22.4302V38.6107Z" fill="#343A3F"/>
<path d="M9 16V8H10.4095L11.9951 12.9927L13.5808 8H15V16H13.7471V11.0653L12.4551 15.2685H11.5449L10.2529 11.0653V16H9Z" fill="#343A3F"/>
<path d="M34.3733 25.0794C34.6533 25.9221 35.1733 26.6609 36.16 26.6609C36.8667 26.6609 37.3333 26.3608 37.3333 25.645C37.3333 24.3636 33.56 24.6061 33.56 22.1241C33.56 20.9466 34.6133 20 36.0267 20C37.2267 20 38.1333 20.5079 38.6267 21.4199L37.2667 22.1703C36.92 21.5931 36.5467 21.3391 36.0133 21.3391C35.5067 21.3391 35.1467 21.6392 35.1467 22.0548C35.1467 23.417 39 23.2439 39 25.5642C39 27.0765 37.84 28 36.1067 28C34.4667 28 33.2667 27.0072 33 25.8182L34.3733 25.0794Z" fill="#343A3F"/>
</svg>
