<?xml version="1.0" encoding="UTF-8"?>
<!DOCTYPE svg PUBLIC "-//W3C//DTD SVG 1.1//EN" "http://www.w3.org/Graphics/SVG/1.1/DTD/svg11.dtd">
<svg xmlns="http://www.w3.org/2000/svg" version="1.1" width="512px" height="512px" style="shape-rendering:geometricPrecision; text-rendering:geometricPrecision; image-rendering:optimizeQuality; fill-rule:evenodd; clip-rule:evenodd" xmlns:xlink="http://www.w3.org/1999/xlink">
<g><path style="opacity:0.963" fill="#3C7EE2" d="M 242.5,109.5 C 334.025,108.027 409.525,141.694 469,210.5C 478.843,222.684 487.51,235.684 495,249.5C 495.667,253.5 495.667,257.5 495,261.5C 446.974,342.115 376.141,388.282 282.5,400C 186.113,406.703 106.279,373.87 43,301.5C 32.8254,288.986 23.8254,275.653 16,261.5C 15.3333,257.5 15.3333,253.5 16,249.5C 57.0509,179.487 117.218,134.987 196.5,116C 211.844,112.837 227.177,110.67 242.5,109.5 Z M 242.5,142.5 C 320.307,140.92 385.474,168.587 438,225.5C 445.385,234.55 452.385,243.884 459,253.5C 459.257,256.017 458.59,258.35 457,260.5C 399.243,340.283 321.076,375.45 222.5,366C 151.084,354.733 94.9178,319.566 54,260.5C 52.4101,258.35 51.7434,256.017 52,253.5C 97.9619,186.757 161.462,149.757 242.5,142.5 Z M"/></g>
<g><path style="opacity:0.964" fill="#3C7EE2" d="M 241.5,155.5 C 285.634,151.818 319.468,168.485 343,205.5C 357.735,234.745 359.402,264.745 348,295.5C 326.163,339.344 290.663,359.177 241.5,355C 193.667,345.833 165.167,317.333 156,269.5C 151.823,220.337 171.656,184.837 215.5,163C 224.08,159.746 232.746,157.246 241.5,155.5 Z M 254.5,187.5 C 231.119,189.039 212.619,199.372 199,218.5C 185,243.167 185,267.833 199,292.5C 221.864,322.092 250.698,329.925 285.5,316C 319.777,295.181 330.277,265.681 317,227.5C 303.947,202.212 283.113,188.879 254.5,187.5 Z"/></g>
</svg>
