<?xml version="1.0" encoding="UTF-8"?>
<!DOCTYPE svg PUBLIC "-//W3C//DTD SVG 1.1//EN" "http://www.w3.org/Graphics/SVG/1.1/DTD/svg11.dtd">
<svg xmlns="http://www.w3.org/2000/svg" version="1.1" width="512px" height="512px" style="shape-rendering:geometricPrecision; text-rendering:geometricPrecision; image-rendering:optimizeQuality; fill-rule:evenodd; clip-rule:evenodd" xmlns:xlink="http://www.w3.org/1999/xlink">
<g><path style="opacity:0.995" fill="#414657" d="M 240.5,-0.5 C 250.5,-0.5 260.5,-0.5 270.5,-0.5C 285.39,1.9666 299.39,7.13327 312.5,15C 350.087,40.3763 387.587,65.8763 425,91.5C 425.333,73.8333 425.667,56.1667 426,38.5C 429.937,24.5785 439.104,18.7451 453.5,21C 462.186,23.6874 467.353,29.5207 469,38.5C 469.333,66.1667 469.667,93.8333 470,121.5C 492.902,139.894 506.735,163.561 511.5,192.5C 511.5,268.167 511.5,343.833 511.5,419.5C 501.167,470.5 470.5,501.167 419.5,511.5C 398.167,511.5 376.833,511.5 355.5,511.5C 347.78,508.94 342.947,503.607 341,495.5C 340.667,428.5 340.333,361.5 340,294.5C 337.932,286.099 332.766,280.599 324.5,278C 278.5,277.333 232.5,277.333 186.5,278C 178.234,280.599 173.068,286.099 171,294.5C 170.667,361.5 170.333,428.5 170,495.5C 168.053,503.607 163.22,508.94 155.5,511.5C 134.167,511.5 112.833,511.5 91.5,511.5C 40.5,501.167 9.83333,470.5 -0.5,419.5C -0.5,343.833 -0.5,268.167 -0.5,192.5C 3.83607,165.665 16.1694,143.165 36.5,125C 90.5,88.3333 144.5,51.6667 198.5,15C 211.653,7.24428 225.653,2.07761 240.5,-0.5 Z"/></g>
</svg>
