<?xml version="1.0" encoding="UTF-8"?>
<!DOCTYPE svg PUBLIC "-//W3C//DTD SVG 1.1//EN" "http://www.w3.org/Graphics/SVG/1.1/DTD/svg11.dtd">
<svg xmlns="http://www.w3.org/2000/svg" version="1.1" width="512px" height="512px" style="shape-rendering:geometricPrecision; text-rendering:geometricPrecision; image-rendering:optimizeQuality; fill-rule:evenodd; clip-rule:evenodd" xmlns:xlink="http://www.w3.org/1999/xlink">
<g><path style="opacity:0.993" fill="#414657" d="M 151.5,-0.5 C 156.833,-0.5 162.167,-0.5 167.5,-0.5C 186.772,6.67735 194.772,20.6773 191.5,41.5C 234.167,41.5 276.833,41.5 319.5,41.5C 316.228,20.6773 324.228,6.67735 343.5,-0.5C 348.833,-0.5 354.167,-0.5 359.5,-0.5C 378.772,6.67735 386.772,20.6773 383.5,41.5C 433.069,39.862 470.902,59.862 497,101.5C 504.171,115.181 509.004,129.515 511.5,144.5C 511.5,232.833 511.5,321.167 511.5,409.5C 500.5,466.5 466.5,500.5 409.5,511.5C 394.5,511.5 379.5,511.5 364.5,511.5C 340.935,501.005 334.768,484.005 346,460.5C 350.766,454.205 356.932,450.038 364.5,448C 377.859,447.777 391.193,447.11 404.5,446C 431.196,438.638 445.362,421.138 447,393.5C 447.5,326.167 447.667,258.834 447.5,191.5C 319.5,191.5 191.5,191.5 63.5,191.5C 63.3333,258.834 63.5,326.167 64,393.5C 65.6319,421.133 79.7986,438.633 106.5,446C 119.807,447.11 133.141,447.777 146.5,448C 166.21,455.582 173.71,469.749 169,490.5C 164.473,500.866 156.973,507.866 146.5,511.5C 131.5,511.5 116.5,511.5 101.5,511.5C 44.5,500.5 10.5,466.5 -0.5,409.5C -0.5,321.167 -0.5,232.833 -0.5,144.5C 9.96869,88.8628 42.9687,55.0295 98.5,43C 108.134,41.8526 117.8,41.3526 127.5,41.5C 124.228,20.6773 132.228,6.67735 151.5,-0.5 Z"/></g>
<g><path style="opacity:0.99" fill="#414657" d="M 250.5,233.5 C 269.105,232.628 281.272,240.961 287,258.5C 287.667,306.5 287.667,354.5 287,402.5C 279.43,422.204 265.263,429.704 244.5,425C 234.15,420.652 227.317,413.152 224,402.5C 223.333,354.167 223.333,305.833 224,257.5C 228.32,244.34 237.153,236.34 250.5,233.5 Z"/></g>
<g><path style="opacity:0.967" fill="#414657" d="M 263.5,511.5 C 258.167,511.5 252.833,511.5 247.5,511.5C 228.685,504.899 220.852,491.566 224,471.5C 226.646,461.69 232.48,454.523 241.5,450C 258.226,443.914 272.059,447.748 283,461.5C 291.625,479.3 288.458,494.466 273.5,507C 270.107,508.62 266.774,510.12 263.5,511.5 Z"/></g>
</svg>
