<?xml version="1.0" encoding="UTF-8"?>
<!DOCTYPE svg PUBLIC "-//W3C//DTD SVG 1.1//EN" "http://www.w3.org/Graphics/SVG/1.1/DTD/svg11.dtd">
<svg xmlns="http://www.w3.org/2000/svg" version="1.1" width="512px" height="512px" style="shape-rendering:geometricPrecision; text-rendering:geometricPrecision; image-rendering:optimizeQuality; fill-rule:evenodd; clip-rule:evenodd" xmlns:xlink="http://www.w3.org/1999/xlink">
<g><path style="opacity:0.995" fill="#414657" d="M 226.5,-0.5 C 239.5,-0.5 252.5,-0.5 265.5,-0.5C 289.313,2.43522 311.98,9.43522 333.5,20.5C 309.813,72.2132 317.813,118.38 357.5,159C 383.101,181.141 412.767,191.974 446.5,191.5C 456.333,217.833 466.167,244.167 476,270.5C 486.189,312.946 473.356,346.446 437.5,371C 426.869,376.988 415.535,380.988 403.5,383C 301.5,383.667 199.5,383.667 97.5,383C 63.7467,377.243 39.9134,358.743 26,327.5C 19.5247,309.043 18.858,290.376 24,271.5C 41.5161,216.43 59.1828,161.43 77,106.5C 107.695,44.3328 157.529,8.66613 226.5,-0.5 Z"/></g>
<g><path style="opacity:0.984" fill="#414657" d="M 424.5,-0.5 C 432.833,-0.5 441.167,-0.5 449.5,-0.5C 483.167,7.16667 503.833,27.8333 511.5,61.5C 511.5,69.8333 511.5,78.1667 511.5,86.5C 503.108,122.721 480.441,143.555 443.5,149C 403.271,150.097 376.771,131.597 364,93.5C 356.596,54.4828 370.096,25.3162 404.5,6C 411.119,3.29265 417.786,1.12598 424.5,-0.5 Z"/></g>
<g><path style="opacity:0.978" fill="#414657" d="M 270.5,511.5 C 260.5,511.5 250.5,511.5 240.5,511.5C 199.684,503.833 171.184,480.833 155,442.5C 153.028,436.944 151.528,431.278 150.5,425.5C 220.5,425.5 290.5,425.5 360.5,425.5C 352.586,462.583 331.252,488.75 296.5,504C 287.895,507.147 279.228,509.647 270.5,511.5 Z"/></g>
</svg>
